<svg xmlns="http://www.w3.org/2000/svg" viewBox="0 0 273.14 209.69"><defs><style>.cls-1,.cls-10,.cls-15,.cls-16,.cls-17,.cls-18,.cls-2,.cls-3,.cls-4,.cls-5,.cls-6,.cls-7{fill:none;}.cls-1,.cls-10,.cls-18,.cls-2,.cls-4,.cls-5,.cls-6,.cls-7{stroke:#a6a8ab;}.cls-1,.cls-14,.cls-15,.cls-16,.cls-17,.cls-8{stroke-linecap:round;}.cls-1,.cls-10,.cls-14,.cls-15,.cls-16,.cls-17,.cls-18,.cls-2,.cls-3,.cls-5,.cls-6,.cls-7,.cls-8{stroke-linejoin:round;}.cls-1,.cls-14,.cls-8{stroke-width:0.71px;}.cls-12,.cls-15,.cls-16,.cls-17,.cls-2,.cls-3{stroke-width:1.13px;}.cls-3{stroke:#a7a9ac;}.cls-4{stroke-width:1.14px;}.cls-5{stroke-width:0.57px;}.cls-5,.cls-6,.cls-7{stroke-dasharray:0.57 0.57 0.57 0.57;}.cls-6{stroke-width:0.56px;}.cls-7{stroke-width:0.56px;}.cls-8{fill:#ed174c;}.cls-15,.cls-8{stroke:#ed174c;}.cls-9{fill:#a7a9ac;}.cls-10,.cls-18{stroke-linecap:square;}.cls-10{stroke-width:1.1px;}.cls-11{fill:#a6a8ab;}.cls-12{fill:#fff;}.cls-12,.cls-17{stroke:#58595b;}.cls-13{fill:#58595b;}.cls-14{fill:#231f20;}.cls-14,.cls-16{stroke:#231f20;}.cls-18{stroke-width:1.11px;}</style></defs><title>img-graph-mxSpeed</title><g id="Layer_2" data-name="Layer 2"><g id="Ebene_1" data-name="Ebene 1"><g id="INSERT"><g id="BLOCK_RECORD"><g id="LINE"><path class="cls-1" d="M283.46,13.08"/></g><g id="LINE-2" data-name="LINE"><path class="cls-1" d="M283.46,13.08"/></g></g></g><g id="LINE-3" data-name="LINE"><line class="cls-2" x1="43.88" y1="3.36" x2="43.88" y2="179.06"/></g><g id="LINE-4" data-name="LINE"><line class="cls-2" x1="38.89" y1="173.39" x2="270.58" y2="173.39"/></g><g id="LINE-5" data-name="LINE"><line class="cls-3" x1="38.21" y1="3.36" x2="270.58" y2="3.36"/></g><g id="LINE-6" data-name="LINE"><line class="cls-4" x1="270.58" y1="2.79" x2="270.58" y2="179.06"/></g><g id="LINE-7" data-name="LINE"><line class="cls-5" x1="242.25" y1="179.06" x2="242.25" y2="3.36"/></g><g id="LINE-8" data-name="LINE"><line class="cls-5" x1="270.59" y1="31.7" x2="43.88" y2="31.7"/></g><g id="LINE-9" data-name="LINE"><line class="cls-2" x1="43.88" y1="31.7" x2="38.21" y2="31.7"/></g><g id="LINE-10" data-name="LINE"><line class="cls-5" x1="43.88" y1="60.04" x2="270.58" y2="60.04"/></g><g id="LINE-11" data-name="LINE"><line class="cls-2" x1="38.21" y1="60.04" x2="43.88" y2="60.04"/></g><g id="LINE-12" data-name="LINE"><line class="cls-5" x1="270.58" y1="88.38" x2="43.88" y2="88.38"/></g><g id="LINE-13" data-name="LINE"><line class="cls-2" x1="43.88" y1="88.38" x2="38.21" y2="88.38"/></g><g id="LINE-14" data-name="LINE"><line class="cls-6" x1="43.88" y1="116.71" x2="270.58" y2="116.71"/></g><g id="LINE-15" data-name="LINE"><line class="cls-2" x1="38.21" y1="116.71" x2="43.88" y2="116.71"/></g><g id="LINE-16" data-name="LINE"><line class="cls-7" x1="270.58" y1="145.05" x2="43.88" y2="145.05"/></g><g id="LINE-17" data-name="LINE"><line class="cls-2" x1="43.88" y1="145.05" x2="38.89" y2="145.05"/></g><g id="LINE-18" data-name="LINE"><line class="cls-5" x1="72.22" y1="179.06" x2="72.22" y2="3.36"/></g><g id="LINE-19" data-name="LINE"><line class="cls-1" x1="100.55" y1="43.89" x2="100.55" y2="44.2"/></g><g id="LINE-20" data-name="LINE"><line class="cls-2" x1="100.55" y1="3.36" x2="100.55" y2="179.06"/></g><g id="LINE-21" data-name="LINE"><line class="cls-5" x1="128.89" y1="179.06" x2="128.89" y2="3.36"/></g><g id="LINE-22" data-name="LINE"><line class="cls-1" x1="128.89" y1="44.2" x2="128.89" y2="43.89"/></g><g id="LINE-23" data-name="LINE"><line class="cls-1" x1="157.23" y1="43.89" x2="157.23" y2="44.2"/></g><g id="LINE-24" data-name="LINE"><line class="cls-2" x1="157.23" y1="3.36" x2="157.23" y2="179.06"/></g><g id="LINE-25" data-name="LINE"><line class="cls-5" x1="185.57" y1="179.06" x2="185.57" y2="3.36"/></g><g id="LINE-26" data-name="LINE"><line class="cls-2" x1="213.91" y1="3.36" x2="213.91" y2="179.06"/></g><g id="CIRCLE"><path class="cls-8" d="M120.63,107a2.13,2.13,0,1,0-2.13,2.13,2.13,2.13,0,0,0,2.13-2.13Z"/></g><path class="cls-9" d="M25.76,149.58v-1l3-3.66a1.51,1.51,0,0,0,.42-1,1.15,1.15,0,1,0-2.3,0H25.77A2.14,2.14,0,0,1,28,141.69a2.1,2.1,0,0,1,2.27,2.2,2.44,2.44,0,0,1-.74,1.69l-2.45,3h3.19v1Z"/><path class="cls-9" d="M33.86,149.65a2.16,2.16,0,0,1-2.26-2.25v-3.48a2.26,2.26,0,0,1,4.52,0v3.48A2.16,2.16,0,0,1,33.86,149.65ZM35,144a1.15,1.15,0,1,0-2.28,0v3.41a1.15,1.15,0,1,0,2.28,0Z"/><path class="cls-9" d="M43.87,189.68a2.16,2.16,0,0,1-2.26-2.25V184a2.26,2.26,0,0,1,4.52,0v3.48A2.16,2.16,0,0,1,43.87,189.68ZM45,184a1.15,1.15,0,1,0-2.28,0v3.41a1.15,1.15,0,1,0,2.28,0Z"/><path class="cls-9" d="M100.41,189.61V183l-1.53,1.34V183.1l1.53-1.32h1.12v7.83Z"/><path class="cls-9" d="M155,189.61v-1l3-3.66a1.51,1.51,0,0,0,.42-1,1.15,1.15,0,1,0-2.3,0H155a2.14,2.14,0,0,1,2.28-2.21,2.1,2.1,0,0,1,2.27,2.2,2.44,2.44,0,0,1-.74,1.69l-2.45,3h3.19v1Z"/><path class="cls-9" d="M213.84,189.69a2.18,2.18,0,0,1-2.4-2.2h1.12a1.18,1.18,0,0,0,1.28,1.19,1.21,1.21,0,0,0,1.28-1.3,1.17,1.17,0,0,0-1.31-1.29h-.19v-1h.19a1.07,1.07,0,0,0,1.19-1.19,1.17,1.17,0,1,0-2.33-.09h-1.12a2.17,2.17,0,0,1,2.3-2.13,2.14,2.14,0,0,1,2.28,2.19,1.72,1.72,0,0,1-1,1.67,1.84,1.84,0,0,1,1.1,1.85A2.2,2.2,0,0,1,213.84,189.69Z"/><path class="cls-9" d="M272.3,188.43v1.18h-1.09v-1.18H268v-1l2.76-5.61H272l-2.75,5.61h1.95v-1.83h1.09v1.83h.84v1Z"/><path class="cls-9" d="M29.71,118.91v1.18H28.62v-1.18H25.45v-1l2.76-5.61h1.21l-2.75,5.61h1.95V116h1.09v1.83h.84v1Z"/><path class="cls-9" d="M33.86,120.16a2.16,2.16,0,0,1-2.26-2.25v-3.48a2.26,2.26,0,0,1,4.52,0v3.48A2.16,2.16,0,0,1,33.86,120.16ZM35,114.47a1.15,1.15,0,1,0-2.28,0v3.41a1.15,1.15,0,1,0,2.28,0Z"/><path class="cls-9" d="M28.23,92.12a2.2,2.2,0,0,1-2.32-2.34,4.34,4.34,0,0,1,.58-1.92l1.78-3.63h1.2l-1.68,3.37a1.8,1.8,0,0,1,.69-.12,2.1,2.1,0,0,1,2.06,2.27A2.23,2.23,0,0,1,28.23,92.12Zm0-3.72A1.19,1.19,0,0,0,27,89.76a1.2,1.2,0,1,0,1.19-1.35Z"/><path class="cls-9" d="M33.86,92.12a2.16,2.16,0,0,1-2.26-2.25V86.4a2.26,2.26,0,0,1,4.52,0v3.48A2.16,2.16,0,0,1,33.86,92.12ZM35,86.44a1.15,1.15,0,1,0-2.28,0v3.41a1.15,1.15,0,1,0,2.28,0Z"/><path class="cls-9" d="M28,64a2.24,2.24,0,0,1-2.41-2.28,2.07,2.07,0,0,1,1.08-1.84,1.91,1.91,0,0,1-.95-1.68,2.29,2.29,0,0,1,4.57,0,1.91,1.91,0,0,1-.95,1.68,2.07,2.07,0,0,1,1.08,1.84A2.25,2.25,0,0,1,28,64Zm0-3.61a1.3,1.3,0,1,0,1.29,1.31A1.29,1.29,0,0,0,28,60.36ZM28,57a1.14,1.14,0,0,0-1.15,1.2,1.16,1.16,0,1,0,2.32,0A1.15,1.15,0,0,0,28,57Z"/><path class="cls-9" d="M33.86,64a2.16,2.16,0,0,1-2.26-2.25V58.25a2.26,2.26,0,0,1,4.52,0v3.48A2.16,2.16,0,0,1,33.86,64ZM35,58.28a1.15,1.15,0,1,0-2.28,0v3.41a1.15,1.15,0,1,0,2.28,0Z"/><path class="cls-9" d="M23.31,35.07V28.46L21.78,29.8V28.56l1.53-1.32h1.12v7.83Z"/><path class="cls-9" d="M28.21,35.14A2.16,2.16,0,0,1,26,32.89V29.42a2.26,2.26,0,0,1,4.52,0v3.48A2.16,2.16,0,0,1,28.21,35.14Zm1.14-5.69a1.15,1.15,0,1,0-2.28,0v3.41a1.15,1.15,0,1,0,2.28,0Z"/><path class="cls-9" d="M33.86,35.14a2.16,2.16,0,0,1-2.26-2.25V29.42a2.26,2.26,0,0,1,4.52,0v3.48A2.16,2.16,0,0,1,33.86,35.14ZM35,29.45a1.15,1.15,0,1,0-2.28,0v3.41a1.15,1.15,0,1,0,2.28,0Z"/><path class="cls-9" d="M23.31,7.9V1.29L21.78,2.63V1.39L23.31.07h1.12V7.9Z"/><path class="cls-9" d="M26,7.9v-1l3-3.66a1.51,1.51,0,0,0,.42-1,1.15,1.15,0,1,0-2.3,0H26A2.14,2.14,0,0,1,28.27,0a2.1,2.1,0,0,1,2.27,2.2,2.44,2.44,0,0,1-.74,1.69l-2.45,3h3.19v1Z"/><path class="cls-9" d="M33.86,8A2.16,2.16,0,0,1,31.6,5.72V2.24a2.26,2.26,0,0,1,4.52,0V5.72A2.16,2.16,0,0,1,33.86,8ZM35,2.28a1.15,1.15,0,1,0-2.28,0V5.69a1.15,1.15,0,1,0,2.28,0Z"/><line class="cls-10" x1="100.55" y1="204.73" x2="150.43" y2="204.73"/><polygon class="cls-11" points="146.78 209.24 146.03 208.43 150 204.74 146.03 201.04 146.78 200.23 151.62 204.74 146.78 209.24"/><path class="cls-9" d="M158.56,208.65A1.45,1.45,0,0,1,157,207.1v-3.17h-.64v-.86H157v-1.59h1.12v1.59h1.08v.86h-1.08V207a.57.57,0,0,0,.62.65h.46v1Z"/><path class="cls-9" d="M163.73,204.38a1,1,0,0,0-.84-.37,1.15,1.15,0,0,0-1.11,1.25v3.39h-1.12v-5.58h1.1v.61a1.85,1.85,0,0,1,1.49-.67,1.73,1.73,0,0,1,1.33.53Z"/><path class="cls-9" d="M168.38,208.65v-.51a1.83,1.83,0,0,1-1.49.57,2,2,0,0,1-1.5-.51A1.71,1.71,0,0,1,165,207c0-.93.65-1.61,1.94-1.61h1.46V205c0-.71-.34-1-1.22-1a1.35,1.35,0,0,0-1.22.55l-.73-.69a2.25,2.25,0,0,1,2-.81c1.54,0,2.3.66,2.3,1.91v3.73Zm0-2.46h-1.29c-.68,0-1,.29-1,.8s.32.79,1.06.79a1.34,1.34,0,0,0,1-.32,1.08,1.08,0,0,0,.24-.83Z"/><path class="cls-9" d="M173.37,208.65h-.91l-2-5.58h1.19l1.32,3.93,1.31-3.93h1.19Z"/><path class="cls-9" d="M177.11,206.19c0,1,.5,1.56,1.42,1.56a1.67,1.67,0,0,0,1.35-.57l.71.67a2.62,2.62,0,0,1-2.09.87c-1.4,0-2.51-.74-2.51-2.86,0-1.82.93-2.85,2.37-2.85s2.37,1.08,2.37,2.71v.47Zm2.35-1.54a1.22,1.22,0,0,0-2.21,0,1.73,1.73,0,0,0-.14.76h2.51A1.9,1.9,0,0,0,179.46,204.65Z"/><path class="cls-9" d="M183.71,208.65a1.42,1.42,0,0,1-1.53-1.54v-6.29h1.12V207c0,.43.15.65.61.65h.5v1Z"/><path class="cls-9" d="M189.47,209.69a5.1,5.1,0,0,1-.89-1,2.45,2.45,0,0,1-.25-1.28v-5.26a2.56,2.56,0,0,1,.25-1.28,4.84,4.84,0,0,1,.89-1l.77.77a3,3,0,0,0-.62.73,1.93,1.93,0,0,0-.17.89v5.13a1.93,1.93,0,0,0,.17.89,2.93,2.93,0,0,0,.62.73Z"/><path class="cls-9" d="M198.56,208.65v-3.4a1.08,1.08,0,0,0-1.12-1.24,1.1,1.1,0,0,0-1.16,1.19v3.45h-1.12v-3.4A1.08,1.08,0,0,0,194,204a1.11,1.11,0,0,0-1.16,1.24v3.4h-1.12v-5.58h1.1v.56a2,2,0,0,1,1.49-.63,1.78,1.78,0,0,1,1.58.81,2.12,2.12,0,0,1,1.75-.81,2,2,0,0,1,1.41.51,2.07,2.07,0,0,1,.59,1.57v3.56Z"/><path class="cls-9" d="M208.2,208.65v-3.4a1.08,1.08,0,0,0-1.12-1.24,1.1,1.1,0,0,0-1.16,1.19v3.45h-1.12v-3.4a1.08,1.08,0,0,0-1.12-1.24,1.11,1.11,0,0,0-1.16,1.24v3.4h-1.12v-5.58h1.1v.56A2,2,0,0,1,204,203a1.78,1.78,0,0,1,1.58.81,2.12,2.12,0,0,1,1.75-.81,2,2,0,0,1,1.41.51,2.07,2.07,0,0,1,.59,1.57v3.56Z"/><path class="cls-9" d="M212.45,208.64a4.93,4.93,0,0,1-.88,1l-.77-.77a2.86,2.86,0,0,0,.61-.73,1.79,1.79,0,0,0,.17-.89v-5.13a1.79,1.79,0,0,0-.17-.89,2.89,2.89,0,0,0-.61-.73l.77-.77a4.71,4.71,0,0,1,.88,1,2.45,2.45,0,0,1,.26,1.28v5.26A2.45,2.45,0,0,1,212.45,208.64Z"/><rect class="cls-12" x="54.69" y="72.38" width="94.96" height="16.16"/><path class="cls-13" d="M64.44,82.8a3,3,0,0,1-4,0c-.77-.77-.79-1.55-.79-3.19s0-2.42.79-3.19a3,3,0,0,1,4,0c.77.77.79,1.55.79,3.19S65.21,82,64.44,82.8Zm-.86-5.63a1.65,1.65,0,0,0-2.33,0c-.38.42-.46.89-.46,2.44s.08,2,.46,2.43a1.62,1.62,0,0,0,2.33,0c.4-.41.46-.88.46-2.43S64,77.57,63.58,77.17Z"/><path class="cls-13" d="M70.57,83.1a1.88,1.88,0,0,1-1.35.5A1.71,1.71,0,0,1,67.76,83v2.83H66.64V77.95h1.1v.59a1.73,1.73,0,0,1,1.47-.66,1.91,1.91,0,0,1,1.36.5,3.32,3.32,0,0,1,.63,2.35A3.35,3.35,0,0,1,70.57,83.1Zm-1.65-4.21c-1,0-1.17.86-1.17,1.85s.14,1.86,1.17,1.86,1.15-.87,1.15-1.86S69.94,78.89,68.92,78.89Z"/><path class="cls-13" d="M73.32,81.06c0,1,.5,1.56,1.42,1.56a1.66,1.66,0,0,0,1.35-.57l.71.67a2.62,2.62,0,0,1-2.09.87c-1.4,0-2.51-.74-2.51-2.86,0-1.81.94-2.85,2.37-2.85s2.37,1.08,2.37,2.71v.47Zm2.35-1.54a1.22,1.22,0,0,0-2.21,0,1.72,1.72,0,0,0-.14.76h2.51A1.9,1.9,0,0,0,75.68,79.52Z"/><path class="cls-13" d="M81.28,79.26a1,1,0,0,0-.84-.37,1.15,1.15,0,0,0-1.11,1.25v3.39H78.21V77.95h1.1v.61a1.85,1.85,0,0,1,1.49-.67,1.73,1.73,0,0,1,1.33.53Z"/><path class="cls-13" d="M85.71,83.53V83a1.84,1.84,0,0,1-1.49.57,2,2,0,0,1-1.5-.51,1.71,1.71,0,0,1-.44-1.2c0-.93.65-1.61,1.94-1.61h1.46v-.4c0-.71-.34-1-1.22-1a1.35,1.35,0,0,0-1.22.55l-.73-.69a2.25,2.25,0,0,1,2-.81c1.54,0,2.3.66,2.3,1.91v3.73Zm0-2.46H84.4c-.68,0-1,.29-1,.8s.32.79,1.06.79a1.34,1.34,0,0,0,1-.32,1.07,1.07,0,0,0,.24-.82Z"/><path class="cls-13" d="M90,83.53A1.45,1.45,0,0,1,88.45,82V78.81h-.64v-.86h.64v-1.6h1.12v1.6h1.08v.86H89.57v3.11a.57.57,0,0,0,.62.65h.46v1Z"/><path class="cls-13" d="M91.83,76.85V75.66H93v1.19Zm0,6.68V77.95H93v5.58Z"/><path class="cls-13" d="M97.94,83.53v-3.4a1.08,1.08,0,0,0-1.12-1.24,1.11,1.11,0,0,0-1.16,1.24v3.4H94.54V77.95h1.1v.56a2,2,0,0,1,1.49-.63,1.94,1.94,0,0,1,1.37.51A2,2,0,0,1,99.06,80v3.56Z"/><path class="cls-13" d="M102.44,85.85a2.58,2.58,0,0,1-2-.74l.72-.71a1.57,1.57,0,0,0,1.21.49,1.26,1.26,0,0,0,1.31-1.42v-.72a1.72,1.72,0,0,1-1.44.64,1.85,1.85,0,0,1-1.33-.49,4.4,4.4,0,0,1,0-4.53,1.86,1.86,0,0,1,1.34-.48,1.71,1.71,0,0,1,1.46.66v-.59h1.09v5.54A2.24,2.24,0,0,1,102.44,85.85Zm.13-7c-1,0-1.14.87-1.14,1.75s.13,1.75,1.14,1.75,1.13-.87,1.13-1.75S103.59,78.89,102.57,78.89Z"/><path class="cls-13" d="M112.75,83.1a1.88,1.88,0,0,1-1.35.5,1.71,1.71,0,0,1-1.46-.64v2.83h-1.12V77.95h1.1v.59a1.73,1.73,0,0,1,1.47-.66,1.91,1.91,0,0,1,1.36.5,3.32,3.32,0,0,1,.63,2.35A3.35,3.35,0,0,1,112.75,83.1Zm-1.65-4.21c-1,0-1.17.86-1.17,1.85s.14,1.86,1.17,1.86,1.16-.87,1.16-1.86S112.11,78.89,111.1,78.89Z"/><path class="cls-13" d="M118.4,82.93a2.26,2.26,0,0,1-1.67.66,2.24,2.24,0,0,1-1.66-.66,4,4,0,0,1,0-4.39,2.24,2.24,0,0,1,1.66-.66,2.26,2.26,0,0,1,1.67.66,4,4,0,0,1,0,4.39Zm-.85-3.73a1.13,1.13,0,0,0-.82-.32,1.11,1.11,0,0,0-.81.32,3.23,3.23,0,0,0,0,3.06,1.12,1.12,0,0,0,.81.33,1.14,1.14,0,0,0,.82-.33,3.22,3.22,0,0,0,0-3.06Z"/><path class="cls-13" d="M122.16,83.59a3.06,3.06,0,0,1-2.34-.8l.74-.74a2.16,2.16,0,0,0,1.61.58c.69,0,1.22-.24,1.22-.77s-.21-.61-.75-.66l-.89-.08c-1.06-.1-1.65-.56-1.65-1.54s.94-1.71,2.1-1.71a3,3,0,0,1,2.07.63l-.71.71a2.1,2.1,0,0,0-1.37-.41c-.68,0-1,.29-1,.71s.22.58.77.64l.78.07c1.16.1,1.76.6,1.76,1.58C124.48,83,123.49,83.59,122.16,83.59Z"/><path class="cls-13" d="M125.6,76.85V75.66h1.19v1.19Zm0,6.68V77.95h1.12v5.58Z"/><path class="cls-13" d="M130,83.53A1.45,1.45,0,0,1,128.44,82V78.81h-.64v-.86h.64v-1.6h1.12v1.6h1.08v.86h-1.08v3.11a.57.57,0,0,0,.62.65h.46v1Z"/><path class="cls-13" d="M131.82,76.85V75.66H133v1.19Zm0,6.68V77.95H133v5.58Z"/><path class="cls-13" d="M138.27,82.93a2.26,2.26,0,0,1-1.67.66,2.24,2.24,0,0,1-1.66-.66,4,4,0,0,1,0-4.39,2.24,2.24,0,0,1,1.66-.66,2.26,2.26,0,0,1,1.67.66,4,4,0,0,1,0,4.39Zm-.85-3.73a1.13,1.13,0,0,0-.82-.32,1.11,1.11,0,0,0-.81.32,3.23,3.23,0,0,0,0,3.06,1.12,1.12,0,0,0,.81.33,1.14,1.14,0,0,0,.82-.33,3.23,3.23,0,0,0,0-3.06Z"/><path class="cls-13" d="M143.62,83.53v-3.4a1.08,1.08,0,0,0-1.12-1.24,1.11,1.11,0,0,0-1.16,1.24v3.4h-1.12V77.95h1.1v.56a2,2,0,0,1,1.49-.63,1.94,1.94,0,0,1,1.38.51,2.06,2.06,0,0,1,.56,1.57v3.56Z"/><rect class="cls-12" x="124.01" y="145.54" width="75.12" height="16.16"/><path class="cls-13" d="M133.34,156.71l-1.65-3.3H130.2v3.3H129v-7.83h3a2.24,2.24,0,0,1,2.43,2.29,2.06,2.06,0,0,1-1.56,2.08l1.8,3.47ZM132,149.94H130.2v2.45H132a1.23,1.23,0,1,0,0-2.45Z"/><path class="cls-13" d="M136.36,154.24c0,1,.5,1.56,1.42,1.56a1.67,1.67,0,0,0,1.35-.57l.71.67a2.62,2.62,0,0,1-2.09.87c-1.4,0-2.51-.74-2.51-2.86,0-1.81.93-2.85,2.37-2.85s2.37,1.08,2.37,2.71v.47Zm2.35-1.54a1.22,1.22,0,0,0-2.21,0,1.73,1.73,0,0,0-.14.76h2.51A1.9,1.9,0,0,0,138.72,152.7Z"/><path class="cls-13" d="M143.05,156.78a3.06,3.06,0,0,1-2.34-.8l.74-.74a2.16,2.16,0,0,0,1.61.58c.69,0,1.22-.24,1.22-.77s-.21-.61-.75-.66l-.89-.08c-1.06-.1-1.65-.56-1.65-1.54s.94-1.71,2.1-1.71a3,3,0,0,1,2.07.63l-.7.71a2.11,2.11,0,0,0-1.37-.41c-.68,0-1,.29-1,.71s.22.58.77.64l.78.07c1.16.1,1.76.6,1.76,1.58C145.37,156.17,144.38,156.78,143.05,156.78Z"/><path class="cls-13" d="M147.34,154.24c0,1,.5,1.56,1.42,1.56a1.67,1.67,0,0,0,1.35-.57l.71.67a2.62,2.62,0,0,1-2.09.87c-1.4,0-2.51-.74-2.51-2.86,0-1.81.93-2.85,2.37-2.85s2.37,1.08,2.37,2.71v.47Zm2.35-1.54a1.22,1.22,0,0,0-2.21,0,1.73,1.73,0,0,0-.14.76h2.51A1.9,1.9,0,0,0,149.7,152.7Z"/><path class="cls-13" d="M153.89,156.71a1.45,1.45,0,0,1-1.53-1.55V152h-.64v-.86h.64v-1.6h1.12v1.6h1.08V152h-1.08v3.11a.57.57,0,0,0,.62.65h.46v1Z"/><path class="cls-13" d="M162.12,156.28a1.88,1.88,0,0,1-1.35.5,1.71,1.71,0,0,1-1.46-.64V159h-1.12v-7.83h1.1v.59a1.73,1.73,0,0,1,1.47-.66,1.91,1.91,0,0,1,1.36.5,3.32,3.32,0,0,1,.63,2.35A3.35,3.35,0,0,1,162.12,156.28Zm-1.65-4.21c-1,0-1.17.86-1.17,1.85s.14,1.86,1.17,1.86,1.16-.87,1.16-1.86S161.49,152.07,160.47,152.07Z"/><path class="cls-13" d="M167.78,156.12a2.26,2.26,0,0,1-1.67.66,2.24,2.24,0,0,1-1.66-.66,4,4,0,0,1,0-4.39,2.24,2.24,0,0,1,1.66-.66,2.26,2.26,0,0,1,1.67.66,4,4,0,0,1,0,4.39Zm-.85-3.73a1.14,1.14,0,0,0-.83-.32,1.11,1.11,0,0,0-.81.32,3.23,3.23,0,0,0,0,3.06,1.12,1.12,0,0,0,.81.33,1.15,1.15,0,0,0,.83-.33,3.23,3.23,0,0,0,0-3.06Z"/><path class="cls-13" d="M171.54,156.78a3.06,3.06,0,0,1-2.34-.8l.74-.74a2.16,2.16,0,0,0,1.61.58c.69,0,1.22-.24,1.22-.77s-.21-.61-.75-.66l-.89-.08c-1.06-.1-1.65-.56-1.65-1.54s.94-1.71,2.1-1.71a3,3,0,0,1,2.07.63l-.7.71a2.11,2.11,0,0,0-1.37-.41c-.68,0-1,.29-1,.71s.22.58.77.64l.78.07c1.16.1,1.76.6,1.76,1.58C173.86,156.17,172.87,156.78,171.54,156.78Z"/><path class="cls-13" d="M175,150v-1.19h1.19V150Zm0,6.68v-5.58h1.12v5.58Z"/><path class="cls-13" d="M179.35,156.71a1.45,1.45,0,0,1-1.53-1.55V152h-.64v-.86h.64v-1.6h1.12v1.6H180V152h-1.08v3.11a.57.57,0,0,0,.62.65H180v1Z"/><path class="cls-13" d="M181.2,150v-1.19h1.19V150Zm0,6.68v-5.58h1.12v5.58Z"/><path class="cls-13" d="M187.64,156.12a2.26,2.26,0,0,1-1.67.66,2.24,2.24,0,0,1-1.66-.66,4,4,0,0,1,0-4.39,2.24,2.24,0,0,1,1.66-.66,2.26,2.26,0,0,1,1.67.66,4,4,0,0,1,0,4.39Zm-.85-3.73a1.14,1.14,0,0,0-.83-.32,1.11,1.11,0,0,0-.81.32,3.22,3.22,0,0,0,0,3.06,1.12,1.12,0,0,0,.81.33,1.15,1.15,0,0,0,.83-.33,3.22,3.22,0,0,0,0-3.06Z"/><path class="cls-13" d="M193,156.71v-3.4a1.08,1.08,0,0,0-1.12-1.24,1.11,1.11,0,0,0-1.16,1.24v3.4H189.6v-5.58h1.1v.56a2,2,0,0,1,1.49-.63,1.94,1.94,0,0,1,1.38.51,2.05,2.05,0,0,1,.56,1.57v3.56Z"/><g id="CIRCLE-2" data-name="CIRCLE"><path class="cls-14" d="M114.12,125.5a2.13,2.13,0,1,0-2.13,2.13,2.13,2.13,0,0,0,2.13-2.13Z"/></g><g id="LINE-27" data-name="LINE"><line class="cls-15" x1="45.93" y1="127.29" x2="227.04" y2="77.86"/></g><g id="ARC"><path class="cls-15" d="M45.93,127.29c-1.13.26-2,2-2,3.84"/></g><g id="ARC-2" data-name="ARC"><path class="cls-15" d="M227,77.86c5.65-1.33,7.46-7.94,7.46-17.27"/></g><g id="LINE-28" data-name="LINE"><line class="cls-16" x1="225.15" y1="83.02" x2="121.29" y2="111.09"/></g><g id="LINE-29" data-name="LINE"><line class="cls-16" x1="112.15" y1="124.74" x2="46.04" y2="143.54"/></g><g id="ARC-3" data-name="ARC"><path class="cls-16" d="M46,143.54c-1.13.26-2.19,2-2.17,3.85"/></g><g id="ARC-4" data-name="ARC"><path class="cls-16" d="M225.15,83c6.87-1.63,9.41-10.39,9.41-21.75"/></g><g id="LINE-30" data-name="LINE"><line class="cls-16" x1="116.73" y1="115.6" x2="111.31" y2="127.38"/></g><g id="ARC-5" data-name="ARC"><path class="cls-16" d="M121.29,111.09c-1.6.27-3.67,2.32-4.56,4.51"/></g><g id="LINE-31" data-name="LINE"><line class="cls-17" x1="147.58" y1="145.34" x2="113.37" y2="125.95"/></g><line class="cls-18" x1="5.73" y1="139.44" x2="5.73" y2="89.12"/><polygon class="cls-11" points="10.25 92.78 9.44 93.54 5.73 89.54 2.02 93.54 1.21 92.78 5.73 87.92 10.25 92.78"/><path class="cls-9" d="M4.15,82.33H8.87v1.12H4.15v.64H3.29v-.64H2.53A1.45,1.45,0,0,1,1,81.93v-.7h1v.5a.57.57,0,0,0,.65.62h.71V81.22h.86Z"/><path class="cls-9" d="M8.27,76.46a2.26,2.26,0,0,1,.66,1.67,2.24,2.24,0,0,1-.66,1.66,3,3,0,0,1-2.2.66,2.93,2.93,0,0,1-2.19-.66,2.24,2.24,0,0,1-.66-1.66,2.26,2.26,0,0,1,.66-1.67,2.93,2.93,0,0,1,2.19-.66A2.94,2.94,0,0,1,8.27,76.46Zm-3.73.85a1.14,1.14,0,0,0-.32.83,1.11,1.11,0,0,0,.32.81,2.16,2.16,0,0,0,1.53.39,2.16,2.16,0,0,0,1.53-.39,1.12,1.12,0,0,0,.33-.81,1.15,1.15,0,0,0-.33-.83,2.16,2.16,0,0,0-1.53-.39A2.16,2.16,0,0,0,4.54,77.31Z"/><path class="cls-9" d="M4.6,71.21a1,1,0,0,0-.37.84,1.15,1.15,0,0,0,1.25,1.11H8.87v1.12H3.29v-1.1H3.9a1.85,1.85,0,0,1-.67-1.49,1.73,1.73,0,0,1,.53-1.33Z"/><path class="cls-9" d="M8.93,67.58c0,1.25-.77,2.49-2.86,2.49s-2.85-1.23-2.85-2.49A2.29,2.29,0,0,1,4,65.75l.75.77a1.3,1.3,0,0,0-.53,1.07,1.26,1.26,0,0,0,.49,1,2.07,2.07,0,0,0,1.35.33,2.1,2.1,0,0,0,1.36-.33,1.26,1.26,0,0,0,.5-1,1.3,1.3,0,0,0-.53-1.07l.74-.77A2.3,2.3,0,0,1,8.93,67.58Z"/><path class="cls-9" d="M6.4,63.79c1,0,1.56-.5,1.56-1.42A1.66,1.66,0,0,0,7.39,61l.67-.71a2.62,2.62,0,0,1,.87,2.09c0,1.4-.74,2.51-2.86,2.51-1.81,0-2.85-.94-2.85-2.37s1.08-2.37,2.71-2.37H6.4ZM4.86,61.44a1.22,1.22,0,0,0,0,2.21,1.72,1.72,0,0,0,.76.14V61.28A1.9,1.9,0,0,0,4.86,61.44Z"/><path class="cls-9" d="M9.9,54.85a5.07,5.07,0,0,1-1,.89A2.44,2.44,0,0,1,7.58,56H2.32A2.56,2.56,0,0,1,1,55.74a4.84,4.84,0,0,1-1-.89l.77-.77a3,3,0,0,0,.73.62,1.92,1.92,0,0,0,.89.16H7.51a1.92,1.92,0,0,0,.89-.16,2.92,2.92,0,0,0,.73-.62Z"/><path class="cls-9" d="M8.93,50.36c0,1.25-.77,2.49-2.86,2.49s-2.85-1.23-2.85-2.49A2.29,2.29,0,0,1,4,48.52l.75.77a1.3,1.3,0,0,0-.53,1.07,1.26,1.26,0,0,0,.49,1,2.07,2.07,0,0,0,1.35.33,2.1,2.1,0,0,0,1.36-.33,1.26,1.26,0,0,0,.5-1,1.3,1.3,0,0,0-.53-1.07l.74-.77A2.3,2.3,0,0,1,8.93,50.36Z"/><path class="cls-9" d="M8.87,42.28,3.36,45.9H8.87v1.19H1V46l5.5-3.62H1V41.19H8.87Z"/><path class="cls-9" d="M8.86,37.89a4.93,4.93,0,0,1,1,.88l-.77.77a2.87,2.87,0,0,0-.73-.6,1.78,1.78,0,0,0-.89-.16H2.39a1.78,1.78,0,0,0-.89.16,2.89,2.89,0,0,0-.73.6L0,38.77a4.68,4.68,0,0,1,1-.88,2.45,2.45,0,0,1,1.28-.26H7.58A2.44,2.44,0,0,1,8.86,37.89Z"/><g id="LINE-32" data-name="LINE"><line class="cls-17" x1="100.17" y1="88.59" x2="117.3" y2="105.29"/></g></g></g></svg>